<svg xmlns="http://www.w3.org/2000/svg" viewBox="130 86 500 148">
  <g transform="translate(200, 160)">
    <polygon points="0,-62 38,-20 -38,-20" fill="#c9a96e" opacity="0.95" />
    <polygon points="0,-62 -38,-20 -52,10" fill="#b8934a" opacity="0.9" />
    <polygon points="0,-62 38,-20 52,10" fill="#d4b87a" opacity="0.9" />
    <polygon points="-38,-20 -52,10 0,62" fill="#a07830" opacity="0.85" />
    <polygon points="38,-20 52,10 0,62" fill="#c9a96e" opacity="0.85" />
    <polygon points="-52,10 0,62 0,30" fill="#8a6020" opacity="0.8" />
    <polygon points="52,10 0,62 0,30" fill="#b8934a" opacity="0.8" />
    <polygon points="-38,-20 38,-20 52,10 0,30 -52,10" fill="#e8c87e" opacity="0.6" />
    <line x1="0" y1="-62" x2="0" y2="30" stroke="#f0d898" stroke-width="0.5" opacity="0.5" />
    <line x1="-38" y1="-20" x2="52" y2="10" stroke="#f0d898" stroke-width="0.5" opacity="0.3" />
    <line x1="38" y1="-20" x2="-52" y2="10" stroke="#f0d898" stroke-width="0.5" opacity="0.3" />
  </g>
  <text
    x="288"
    y="148"
    font-size="72"
    font-weight="400"
    fill="#c9a96e"
    letter-spacing="6"
    style="font-family:'Cormorant Garamond', Georgia, serif"
  >
    Azurelle
  </text>
  <line
    x1="288"
    y1="166"
    x2="612"
    y2="166"
    stroke="#c9a96e"
    stroke-width="0.75"
    opacity="0.6"
  />
  <text
    x="288"
    y="208"
    font-size="33.75"
    font-weight="400"
    fill="#c9a96e"
    opacity="0.8"
    letter-spacing="2"
    style="font-family:Montserrat, 'Helvetica Neue', sans-serif"
  >
    LUXURY FASHION
  </text>
</svg>
